<svg id="dogIcon" class="icon" xmlns="http://www.w3.org/2000/svg" width="363.64" height="363.64" viewBox="0 0 363.64 363.64">
  <defs>
    <style>
      .cls-1, .cls-3 {
        fill: #010101;
      }

      .cls-2 {
        fill: #a77d52;
      }

      .cls-2, .cls-3 {
        stroke: #010101;
        stroke-miterlimit: 10;
      }

      .cls-4 {
        fill: #333;
      }

      .cls-5 {
        fill: #fff;
      }

      .cls-6 {
        fill: #ec2227;
      }
    </style>
  </defs>
  <g id="Dog">
    <circle class="cls-1" cx="181.82" cy="181.82" r="181.82"/>
    <g id="dog-2" data-name="dog">
      <g id="earsD">
        <g id="right_earD">
          <path id="earD4" class="cls-2" d="M140,103.94a13.29,13.29,0,0,0-.37-1.51c-3.63-11.74-23.87-23-40.68-29.17-19.84-7.33-44-11.4-53.2-3.94-7.22,5.83-1.14,25.3,18.07,57.86C78,151.26,94.46,174,94.63,174.2l.35.48.43-.42a314.84,314.84,0,0,0,23.8-26.51C134.73,128.19,141.71,113.45,140,103.94Z"/>
          <path id="earD3" class="cls-3" d="M122.55,112.9c0-.24-.11-.49-.18-.73-1.78-5.74-11.68-11.23-19.9-14.27-9.7-3.59-21.51-5.57-26-1.93-3.53,2.86-.56,12.38,8.84,28.3,6.95,11.78,15,22.89,15.09,23l.17.23.21-.2a155.92,155.92,0,0,0,11.65-13C120,124.77,123.41,117.56,122.55,112.9Z"/>
        </g>
        <g id="right_earD-2" data-name="right_earD">
          <path id="earD2" class="cls-2" d="M317.94,69.32c-9.22-7.46-33.36-3.39-53.21,3.94-16.8,6.21-37.05,17.43-40.67,29.17a13.34,13.34,0,0,0-.38,1.51c-1.75,9.51,5.23,24.25,20.74,43.81a315.93,315.93,0,0,0,23.81,26.51l.43.42.35-.48c.16-.23,16.65-22.94,30.86-47C319.08,94.62,325.16,75.15,317.94,69.32Z"/>
          <path id="earD1" class="cls-1" d="M287.16,95.22c-4.51-3.65-16.32-1.66-26,1.93-8.22,3-18.12,8.53-19.9,14.27-.07.24-.13.49-.18.73-.86,4.66,2.55,11.87,10.14,21.43a155.92,155.92,0,0,0,11.65,13l.21.2.17-.23c.08-.11,8.14-11.22,15.09-23C287.71,107.6,290.69,98.08,287.16,95.22Z"/>
        </g>
      </g>
      <path id="faceD" class="cls-2" d="M280.07,180.66c-4-16.63-13.51-47-32.87-63.8-30.06-26-60.76-19.6-64.65-18.64-3.89-1-34.59-7.41-64.65,18.64C98.54,133.64,89,164,85,180.66,79.21,205.07,78,230,81.83,244.21c9,33.1,47.32,53.79,100,54.06h1.46c52.67-.27,91-21,100-54.06C287.15,230,285.89,205.07,280.07,180.66Z"/>
      <g id="eyesD">
        <g id="rightD">
          <g id="right_eyeD">
            <circle class="cls-1" cx="228.82" cy="216.34" r="21.51"/>
          </g>
          <g id="right_eyebrowD">
            <ellipse class="cls-4" cx="227.8" cy="176.96" rx="9.1" ry="18.2" transform="translate(29.46 386.42) rotate(-84.4)"/>
          </g>
        </g>
        <g id="leftD">
          <g id="left_eyeD">
            <circle class="cls-1" cx="136.29" cy="216.34" r="21.51"/>
          </g>
          <g id="left_eyebrowD">
            <ellipse class="cls-4" cx="137.3" cy="176.96" rx="18.2" ry="9.1" transform="translate(-16.61 14.24) rotate(-5.6)"/>
          </g>
        </g>
      </g>
      <g id="noseD2">
        <g>
          <ellipse class="cls-5" cx="182.55" cy="261.38" rx="37.38" ry="23.9"/>
          <path class="cls-1" d="M182.55,285.69c-20.84,0-37.79-10.91-37.79-24.31s17-24.31,37.79-24.31,37.79,10.91,37.79,24.31S203.39,285.69,182.55,285.69Zm0-47.8c-20.38,0-37,10.54-37,23.49s16.59,23.49,37,23.49,37-10.54,37-23.49S202.93,237.89,182.55,237.89Z"/>
        </g>
        <g id="noseD">
          <path id="tongueD" class="cls-6" d="M186.09,266.76a7.45,7.45,0,0,1-1.81-1.3,7.16,7.16,0,0,1-1.9-3.46,7.24,7.24,0,0,1-2,3.7,7.43,7.43,0,0,1-1.8,1.31c-2.31,1.2-5.57,1.47-9.72.83a18.15,18.15,0,0,0-.17,2.34c0,8.36,6.1,15.13,13.63,15.13S196,278.54,196,270.18a16.71,16.71,0,0,0-.21-2.57C191.64,268.23,188.39,268,186.09,266.76Z"/>
          <path id="noseD-2" data-name="noseD" class="cls-1" d="M200.35,265.81a.83.83,0,0,0-.87-.6.73.73,0,0,0-.36,0,37.62,37.62,0,0,1-3.69.74v0c-4.59.65-7.93.09-9.74-1.7a6.27,6.27,0,0,1-1.68-4.46c4.44-.46,7.86-3.15,7.86-6.42,0-3.59-4.11-6.5-9.18-6.5s-9.19,2.91-9.19,6.5c0,3.2,3.28,5.85,7.59,6.39a6.43,6.43,0,0,1-1.67,4.73c-2.3,2.27-7,2.59-13.64.95a.87.87,0,0,0-.36,0,.84.84,0,0,0-.87.61.86.86,0,0,0,.61,1c1.32.32,2.56.56,3.73.74v0c4.24.67,7.56.42,9.91-.8a7.43,7.43,0,0,0,1.8-1.31,7.24,7.24,0,0,0,2-3.7,7.19,7.19,0,0,0,1.91,3.46,7.4,7.4,0,0,0,1.8,1.3c3,1.54,7.48,1.57,13.45.09A.85.85,0,0,0,200.35,265.81Z"/>
        </g>
      </g>
    </g>
  </g>
</svg>
