<svg id="Layer_1" data-name="Layer 1" xmlns="http://www.w3.org/2000/svg" width="363.64" height="363.64" viewBox="0 0 363.64 363.64">
  <defs>
    <style>
      .cls-1 {
        fill: #010101;
      }

      .cls-2 {
        fill: #f4df17;
      }

      .cls-3 {
        fill: #333;
      }
    </style>
  </defs>
  <g id="Dragon">
    <circle class="cls-1" cx="181.82" cy="181.82" r="181.82"/>
    <g id="dragon-2" data-name="dragon">
      <g id="face">
        <path class="cls-2" d="M252.88,163.62s30.45-17.84,30.45-27.41-3.92-18.7-16.53-18.27c0,0,29.14-20.88,19.14-32.63s-27.41-3.48-27.41-3.48,23.93-14.35,9.57-32.19-47.85,39.15-59.16,39.15a11.67,11.67,0,0,0-3.89.81c-1-16.57-4.16-49.86-14-50.84-13-1.3-23.06,3.92-23.06,23.5,0,0-9.13-10.44-20.44-3s-.44,35.67,3.48,39.15c0,0-15.66-10-27.41,1.31s7,27,3.48,32.19c-1.64,2.47-3.38,11.25-4.76,19.82l-1.85,2.39S76.1,244.14,76.1,255s15.62,57.65,40.84,62.45c0,0,4.56-1.08,5.43-11.52,0,0,7.39,17.4,23,18.7s69.61.44,95.71-10.87,43.94-34.37,43.07-41.33S267.23,183.2,252.88,163.62Z"/>
        <path class="cls-1" d="M160.21,325.47c-6.15,0-11.28-.18-14.82-.48-8.23-.68-14.16-5.81-17.68-10a41.77,41.77,0,0,1-5.09-7.65c-1.16,9.28-5.4,10.4-5.59,10.44l-.08,0h-.09C91.64,313,75.69,266,75.69,255c0-10.78,42.67-97.38,44.48-101.06l1.83-2.38c1.78-11.08,3.4-17.76,4.81-19.88,1.16-1.74-.6-5.1-2.64-9-3.54-6.73-8.38-16-.78-23.27,9.51-9.15,21.64-4.54,26.13-2.32-3.14-4.88-8-17.85-7.26-27.71.37-5,2.09-8.5,5.11-10.47,9.67-6.32,17.87.14,20.27,2.4.16-8.62,2.35-14.91,6.54-18.69,3.9-3.54,9.61-5,17-4.22,9.79,1,13.15,31.91,14.29,50.68a11.08,11.08,0,0,1,3.51-.66c4.09,0,11.72-8.33,19.79-17.16,11-12.06,23.53-25.72,32.9-25.44a8.84,8.84,0,0,1,6.79,3.6c3.83,4.76,5.32,9.72,4.43,14.75-1.35,7.54-7.64,13.32-11.36,16.15,5.56-1.77,17.25-4,24.76,4.77a9,9,0,0,1,2.11,7.25c-.6,4.88-4.38,10.74-11.23,17.42a101.2,101.2,0,0,1-9.08,7.8c4.44.07,8,1.39,10.64,3.93,4.17,4,5.05,10.25,5.05,14.76,0,9.22-26.56,25.33-30.27,27.53,14.78,20.88,30.51,103.61,31.14,108.59.9,7.27-17.18,30.43-43.32,41.75C221,322.89,183.4,325.47,160.21,325.47Zm-38.12-21.28.65,1.53a39.24,39.24,0,0,0,5.61,8.77c3.42,4.05,9.17,9,17.11,9.68,16.82,1.41,69.94.24,95.51-10.84a98.52,98.52,0,0,0,31.51-22.2c7.1-7.5,11.75-15.19,11.31-18.7-1.06-8.51-17.33-89.6-31.24-108.57l-.27-.36.39-.23c.3-.18,30.25-17.83,30.25-27.06,0-4.35-.83-10.34-4.8-14.17-2.7-2.61-6.51-3.85-11.31-3.69l-1.35.05,1.1-.79c.19-.14,19.61-14.17,21-25.41a8.27,8.27,0,0,0-1.91-6.62c-9.69-11.37-26.75-3.46-26.92-3.38l-.39-.72c.12-.07,11.9-7.25,13.72-17.5.85-4.78-.58-9.52-4.26-14.08a8,8,0,0,0-6.18-3.3c-9-.29-21.35,13.24-32.27,25.17-8.55,9.36-15.94,17.43-20.39,17.43a11.11,11.11,0,0,0-3.75.79l-.52.19,0-.55c-.88-14.85-3.95-49.49-13.58-50.46-7.11-.71-12.61.64-16.33,4-4.17,3.76-6.28,10.18-6.28,19.07v1.09l-.71-.82c-.37-.42-9-10.09-19.92-3-2.8,1.83-4.39,5.15-4.74,9.85-.82,11.13,5.52,26.22,8.27,28.66l-.49.65c-.16-.1-15.53-9.7-26.91,1.26-7.15,6.88-2.66,15.43.94,22.29,2.25,4.29,4,7.68,2.6,9.83-1.32,2-2.95,8.79-4.7,19.66l0,.1-1.91,2.47c-.4.83-44.35,90-44.35,100.63,0,10.86,15.65,57.2,40.4,62,.56-.2,4.28-1.9,5-11.14Z"/>
      </g>
      <g id="mouse">
        <path class="cls-1" d="M242.26,290.75l-1.09-1.45c-4.19,3.17-8,4.87-11.35,5.14l-.43-.3-.26.36a10.33,10.33,0,0,1-3.21-.42c-5.47-1.66-7.64-7.76-7.66-7.82l-1.72.59c.1.28,2.47,7,8.84,9a12.53,12.53,0,0,0,2.37.43c-11.05,12.94-40.53,25.3-49.28,25.79-4,.19-11-5.08-17.16-9.76-7.47-5.67-13.92-10.56-17.49-8.48-6,3.52-12.86,11.77-13.14,12.12l1.4,1.15c.07-.08,6.91-8.35,12.66-11.7,2.52-1.48,9.4,3.75,15.47,8.36,6.56,5,13.34,10.13,18,10.13h.34c9-.5,40.6-13.39,51.51-27.59C233.77,295.92,237.85,294.09,242.26,290.75Z"/>
      </g>
      <g id="eyes">
        <g id="left_eye">
          <path class="cls-1" d="M96.71,194.5A21.51,21.51,0,0,0,84,233.38c4.77-11.32,11.18-25.31,17.31-38.38A22,22,0,0,0,96.71,194.5Z"/>
        </g>
        <g id="left_eyebrow">
          <path class="cls-3" d="M107.31,172.13c-10,1-17.72,5.83-17.23,10.83.4,4,6,6.94,13.43,7.4,3.15-6.67,6.17-13,8.77-18.37A34.87,34.87,0,0,0,107.31,172.13Z"/>
        </g>
        <g id="right_eye">
          <circle class="cls-1" cx="184.17" cy="225.73" r="21.51"/>
        </g>
        <g id="right_eyebrow">
          <ellipse class="cls-3" cx="186.53" cy="183.64" rx="9.1" ry="18.2" transform="translate(-14.43 351.37) rotate(-84.4)"/>
        </g>
      </g>
      <g id="nose">
        <g id="right_nose">
          <ellipse class="cls-1" cx="127.25" cy="253.76" rx="4.37" ry="8.74" transform="translate(-148.04 184.47) rotate(-49.24)"/>
        </g>
        <g id="left_nose">
          <ellipse class="cls-1" cx="99.39" cy="252.36" rx="8.74" ry="4.37" transform="translate(-140.66 126.1) rotate(-40.76)"/>
        </g>
      </g>
      <g id="line">
        <path class="cls-1" d="M217.41,83.43l-5.07,4.67c-1,.58-20.05,16.39-26,40.2l.79.2c6-24,25.49-39.61,25.67-39.72L218,84Z"/>
      </g>
    </g>
  </g>
</svg>
