<svg id="Layer_1" data-name="Layer 1" xmlns="http://www.w3.org/2000/svg" width="363.64" height="363.64" viewBox="0 0 363.64 363.64">
  <defs>
    <style>
      .cls-1 {
        fill: #010101;
      }

      .cls-2 {
        fill: #fff;
      }

      .cls-3 {
        fill: #333;
      }

      .cls-4 {
        fill: #592d0f;
      }

      .cls-5 {
        fill: #dbd9d7;
      }
    </style>
  </defs>
  <g id="Goat">
    <circle class="cls-1" cx="181.82" cy="181.82" r="181.82"/>
    <g id="goat-2" data-name="goat">
      <g>
        <path class="cls-2" d="M241.33,139.36c-27.94-24.21-56.75-20.4-61.59-19.31-4.83-1.09-33.57-4.9-61.51,19.31C87.46,166,76.53,219,76.53,246.35c0,54.35,48.89,67.33,103.25,67.26s103.34-15,103.34-69.34C283.12,217,272.1,166,241.33,139.36Z"/>
        <path class="cls-1" d="M179.37,314c-42.18,0-70.64-7.95-87-24.31C81.59,279,76.14,264.37,76.14,246.35c0-16,3.48-36.1,9.33-53.86,5.3-16.12,15.24-38.47,32.5-53.43,29.68-25.71,59.58-19.89,61.77-19.42,2.2-.47,32.16-6.31,61.85,19.42,30.76,26.66,41.92,77.53,41.92,105.21,0,18.4-5.67,33.39-16.85,44.56C249.93,305.54,220.82,314,180.14,314Zm-9.81-194.47c-11.53,0-31.33,3-51.07,20.12-17.12,14.84-27,37.06-32.27,53.08-5.82,17.68-9.29,37.72-9.29,53.61,0,17.8,5.37,32.2,16,42.79,16.22,16.2,44.5,24.08,86.46,24.08.25,0,.51,0,.77,0,40.47,0,69.39-8.39,86-25,11-11,16.62-25.82,16.62-44,0-27.54-11.09-78.12-41.65-104.61h0c-29.89-25.9-60-19.51-61.24-19.23l-.09,0-.08,0A50.32,50.32,0,0,0,169.56,119.54Z"/>
      </g>
      <g id="eyes">
        <g id="right">
          <g id="right_eye">
            <circle class="cls-1" cx="224.47" cy="258.89" r="20.74"/>
          </g>
          <g id="right_eyebrow">
            <ellipse class="cls-3" cx="223.5" cy="220.92" rx="8.78" ry="17.55" transform="translate(-18.17 421.8) rotate(-84.4)"/>
          </g>
        </g>
        <g id="left">
          <g id="left_eye">
            <circle class="cls-1" cx="135.45" cy="258.89" r="20.74"/>
          </g>
          <g id="left_eyebrow">
            <ellipse class="cls-3" cx="132.26" cy="220.92" rx="17.55" ry="8.78" transform="translate(-20.92 13.96) rotate(-5.6)"/>
          </g>
        </g>
      </g>
      <g id="ears">
        <g id="left_ear">
          <path class="cls-2" d="M133.25,146.17s-17.24-17.9-43.1-13.92-47.08,21.88-47.08,31.16S100.76,183.3,120,176.67,133.25,146.17,133.25,146.17Z"/>
          <path class="cls-1" d="M103.15,179.09c-20.62,0-49.05-5.61-57.73-11.8-1.82-1.3-2.75-2.61-2.75-3.88,0-9.58,21.25-27.53,47.42-31.55,25.77-4,43.27,13.86,43.45,14l.07.07,0,.11c.06.24,5.84,24.3-13.51,31C116,178.47,110,179.09,103.15,179.09Zm-5.58-47a48.4,48.4,0,0,0-7.36.57,78.18,78.18,0,0,0-33.07,13.52c-8.31,6-13.67,12.74-13.67,17.25,0,1,.81,2.09,2.41,3.23,11.45,8.17,57.59,15.31,74,9.66,18-6.22,13.42-28.22,13-29.93C131.76,145.24,118,132.07,97.57,132.07Z"/>
        </g>
        <g id="right_ear">
          <path class="cls-2" d="M230.39,146.17s17.24-17.9,43.1-13.92,47.08,21.88,47.08,31.16-57.69,19.89-76.92,13.26S230.39,146.17,230.39,146.17Z"/>
          <path class="cls-1" d="M260.48,179.09c-6.85,0-12.84-.62-17-2-19.35-6.67-13.58-30.73-13.52-31l0-.11.07-.07c.18-.18,17.68-18,43.45-14,26.17,4,47.41,22,47.41,31.55,0,1.27-.92,2.58-2.75,3.88C309.53,173.48,281.11,179.09,260.48,179.09Zm-29.73-32.72c-.39,1.71-5,23.71,13,29.93,16.38,5.65,62.53-1.49,74-9.66,1.61-1.14,2.42-2.23,2.42-3.23,0-9.1-21.39-26.87-46.74-30.77C248.93,128.87,232,145.11,230.75,146.37Z"/>
        </g>
      </g>
      <g id="mouse">
        <path class="cls-1" d="M162.86,268.43c16.57,15,25.58,18.82,34.4,14.65l.86,1.63a17.64,17.64,0,0,1-7.57,1.75c-8.58,0-17.58-6.38-29-16.72Z"/>
        <path class="cls-1" d="M196.79,268.43c-16.57,15-25.58,18.82-34.4,14.65l-.86,1.63a17.64,17.64,0,0,0,7.57,1.75c8.58,0,17.58-6.38,29-16.72Z"/>
      </g>
      <g id="horn">
        <g id="right_horn">
          <path class="cls-4" d="M191.12,150.42c-.88-1.3-11.49-74,38.13-93.62,47.16-18.61,83.86-.34,91,47.11s-48.84,55.42-57.3,16.07c0,0-1-14.65,11.86-1.78s17.92-13.27,1.81-21.11-35.12,21.7-26.88,49.26S191.12,150.42,191.12,150.42Z"/>
        </g>
        <g id="left_horn">
          <path class="cls-4" d="M176.53,156.75c.88-1.3,11.5-74-38.13-93.62-47.16-18.62-83.86-.34-91,47.1s48.84,55.42,57.3,16.07c0,0,1-14.65-11.86-1.78s-17.92-13.26-1.81-21.11,35.12,21.7,26.88,49.26S176.53,156.75,176.53,156.75Z"/>
        </g>
      </g>
      <path class="cls-5" d="M269.32,143.39c0-11-9.68-20.43-23.12-23.8-5.06-9.2-17.28-15.68-31.56-15.68a43.92,43.92,0,0,0-15.51,2.75,41.86,41.86,0,0,0-21.65-5.73,41.25,41.25,0,0,0-23.11,6.68,44.2,44.2,0,0,0-14.49-2.38c-18.81,0-34.06,11.25-34.06,25.13a18.93,18.93,0,0,0,.88,5.67c-10.83,4.21-18.22,12.59-18.22,22.25,0,12.85,13.07,23.44,29.93,24.94,4.23,10.35,17.23,17.88,32.62,17.88a44.45,44.45,0,0,0,13.9-2.19,43.09,43.09,0,0,0,18.22,3.9c11.54,0,21.73-4.24,27.89-10.71a45.33,45.33,0,0,0,11.47,1.46c18.81,0,34.06-11.25,34.06-25.13a18.94,18.94,0,0,0-.69-5.05C264.05,158.79,269.32,151.55,269.32,143.39Z"/>
    </g>
  </g>
</svg>
