<svg id="Layer_1" data-name="Layer 1" xmlns="http://www.w3.org/2000/svg" width="363.64" height="363.64" viewBox="0 0 363.64 363.64">
  <defs>
    <style>
      .cls-1 {
        fill: #010101;
      }

      .cls-2 {
        fill: #492d18;
      }

      .cls-3 {
        fill: #754d25;
      }

      .cls-4 {
        fill: #fff;
      }
    </style>
  </defs>
  <g id="Horse">
    <circle class="cls-1" cx="181.82" cy="181.82" r="181.82"/>
    <g id="horse-2" data-name="horse">
      <g id="mane">
        <path class="cls-2" d="M116.35,120.19s-32-1-61.1,26.23,11.38,22.72,28.64,13.37S-.79,209.1,27,228.39c36.4,25.24,62.34-26,75.23-21.84S4.3,257,48.86,278.87c16.71,8.2,67.39,6.91,87.85-20.87,34.12-46.31,15.69-133.66,15.69-133.66Z"/>
        <path class="cls-1" d="M74.31,283.75c-10.35,0-19.71-1.54-25.65-4.46-6.93-3.41-10.58-7.65-10.87-12.64-.84-14.46,26.44-32,46.35-44.85,9.75-6.28,19-12.2,18.69-14.24q0-.34-.72-.57c-4.16-1.35-9.94,3.56-17.24,9.78-10,8.47-22.47,19.12-37.35,19.13-6.48,0-13.41-2-20.77-7.13-3.38-2.34-5.07-5.4-5-9.07.13-12.41,19.8-31.79,58.48-57.62-12.08,5.16-30.49,8-34.76,2.13-2.64-3.68.55-9.78,9.49-18.13,28.91-27,61.12-26.37,61.44-26.36h0l36.37,4.19.07.33c.19.87,18.08,88.08-15.76,134-12.22,16.59-33.84,22.23-45.64,24.12A109.49,109.49,0,0,1,74.31,283.75Zm26.34-77.92a5.76,5.76,0,0,1,1.75.27c.82.27,1.28.72,1.36,1.34.32,2.5-6.33,6.92-19.11,15.15-19.73,12.7-46.74,30.09-45.93,44,.27,4.62,3.75,8.61,10.35,11.85,8.84,4.34,26.21,5.58,42.24,3,11.65-1.87,33-7.44,45-23.75,32.55-44.18,16.84-127,15.67-133l-35.69-4.11c-.92,0-32.42-.36-60.75,26.1-8.43,7.87-11.67,13.72-9.37,16.9,1.91,2.66,7.72,3.54,15.92,2.42a68,68,0,0,0,21.55-6.7c2.29-1.25,2.33-1.27,2.6-.83s.26.44-3.5,2.94c-39.76,26.33-60,45.92-60.12,58.22,0,3.35,1.52,6.14,4.64,8.29,23.66,16.41,42.91,0,57-11.94C90.88,210.43,96.28,205.83,100.65,205.83Z"/>
      </g>
      <g id="ear">
        <g id="left_ear">
          <path class="cls-3" d="M155.31,103.68S135,82.56,104.47,87.25,48.94,113.06,48.94,124s68.05,23.47,90.73,15.65S155.31,103.68,155.31,103.68Z"/>
          <path class="cls-1" d="M119.81,142.5c-24.33,0-57.85-6.61-68.09-13.91-2.15-1.54-3.25-3.08-3.25-4.58,0-11.3,25.06-32.47,55.93-37.22,30.4-4.67,51,16.35,51.25,16.56l.08.09,0,.13c.08.28,6.88,28.66-15.94,36.53C135,141.77,127.89,142.5,119.81,142.5Zm-6.59-55.45a57.11,57.11,0,0,0-8.68.66,92.36,92.36,0,0,0-39,16c-9.8,7-16.13,15-16.13,20.34,0,1.18,1,2.47,2.85,3.82,13.5,9.62,67.93,18,87.26,11.39,21.26-7.34,15.83-33.29,15.37-35.31C153.55,102.58,137.37,87.05,113.22,87.05Z"/>
        </g>
        <g id="_right_ear" data-name=" right_ear">
          <path class="cls-3" d="M235.08,103.68s20.34-21.12,50.84-16.43,55.54,25.81,55.54,36.76-68,23.47-90.73,15.65S235.08,103.68,235.08,103.68Z"/>
          <path class="cls-1" d="M270.58,142.5c-8.08,0-15.14-.72-20-2.4-22.83-7.87-16-36.25-16-36.53l0-.13.09-.09c.2-.21,20.85-21.23,51.24-16.56,30.88,4.75,55.93,25.92,55.93,37.22,0,1.5-1.09,3-3.24,4.58C328.44,135.89,294.92,142.5,270.58,142.5Zm-35.07-38.59c-.46,2-5.89,28,15.37,35.31,19.32,6.66,73.75-1.77,87.26-11.39C340,126.48,341,125.19,341,124c0-10.73-25.23-31.7-55.14-36.3C257,83.27,237,102.43,235.51,103.91Z"/>
        </g>
      </g>
      <g id="face">
        <path class="cls-3" d="M256.63,109.35C229.22,84.14,201,88.1,196.21,89.23c-4.74-1.13-32.93-5.09-60.34,20.12C105.69,137.11,82,186.9,82,215.35c0,56.59,59.22,75,112.55,75S310,270.53,310,213.94C310,185.5,286.81,137.11,256.63,109.35Z"/>
        <path class="cls-1" d="M194.28,290.77c-41.14,0-75.55-10.81-94.44-29.67C87.72,249,81.57,233.6,81.57,215.35c0-30.2,25.23-79.89,54-106.34,29-26.72,58.33-20.78,60.66-20.25,2.34-.53,31.67-6.49,60.73,20.25s53.52,74.73,53.52,104.93c0,18-6.25,33.35-18.57,45.66-10.56,10.55-25.31,18.64-43.82,24-16,4.67-34.38,7.13-53.2,7.13Zm.31-.93h.31c59,0,87-21.6,96.33-30.9,12.14-12.12,18.29-27.26,18.29-45,0-30-24.37-77.71-53.21-104.25-29.28-26.94-58.75-20.3-60-20l-.11,0-.11,0c-1.23-.3-30.64-6.92-59.91,20-31.64,29.1-53.68,79-53.68,105.66,0,18,6,33.16,18,45.09,18.72,18.69,52.89,29.4,93.79,29.4Z"/>
      </g>
      <g id="top_mane">
        <path class="cls-2" d="M139.63,105.1S132,82.24,179,67.68c29.58-9.17,61.6,3,63.9,9.5.76,2.17-21.57,4.6-25.18,2.71,0,0,37.07,6.7,37.9,46.09,0,0-36.16-26.18-36.08-16.62,0,0,47.87,20.59-.82,72.11,0,0-27.24-76.7-44.86-80.4S139.63,105.1,139.63,105.1Z"/>
        <path class="cls-1" d="M218.51,182.34l-.26-.72c-.27-.76-27.35-76.49-44.51-80.09s-33.75,3.92-33.92,4l-.47.22-.17-.5c-.08-.23-1.88-5.87,2-13.39,6.53-12.73,24.09-20.42,37.67-24.63,30.25-9.38,62.15,3.22,64.48,9.8a.88.88,0,0,1-.35,1c-1.89,1.65-12.61,3-19.69,3,10.45,3.7,32.16,15,32.79,45l0,.94-.76-.55c-8.15-5.89-30.24-20.68-34.67-18.41a1.24,1.24,0,0,0-.66,1.12c2.28,1.08,17.18,8.67,20.4,24.26,2.91,14.08-4.28,30.38-21.36,48.46ZM163.94,99.61a48.91,48.91,0,0,1,10,1c16.95,3.56,42,71.7,44.94,80,16.49-17.61,23.42-33.44,20.61-47.06-3.37-16.34-20-23.67-20.15-23.74l-.28-.12v-.3a2.29,2.29,0,0,1,1.18-2.25c5.41-2.78,29.54,14.11,34.88,17.93-1.19-32.59-28-42.18-35.55-44.23a6.75,6.75,0,0,1-2.08-.52l-2.7-1.41,3,.54s.84.16,2.16.53c5,.57,16.45-.52,21-2,1.33-.42,1.48-.71,1.49-.72-2.19-6.09-34.16-18.17-63.32-9.12-13.39,4.15-30.7,11.7-37.1,24.12-3,5.92-2.4,10.7-2.07,12.21A65.5,65.5,0,0,1,163.94,99.61Z"/>
      </g>
      <g id="eyes">
        <g id="right_eye">
          <path class="cls-1" d="M267.77,186A28,28,0,0,0,239.84,214h2.81a25.12,25.12,0,1,1,50.24,0h2.8A28,28,0,0,0,267.77,186Z"/>
        </g>
        <g id="left_eye">
          <path class="cls-1" d="M145.45,186A28,28,0,0,0,117.53,214h2.8a25.13,25.13,0,1,1,50.25,0h2.8A28,28,0,0,0,145.45,186Z"/>
        </g>
      </g>
      <g id="nose">
        <g>
          <ellipse class="cls-4" cx="203.01" cy="268.28" rx="48.5" ry="31.01"/>
          <path class="cls-1" d="M203,299.75c-27,0-49-14.12-49-31.47s22-31.48,49-31.48,49,14.12,49,31.48S230,299.75,203,299.75Zm0-62c-26.48,0-48,13.7-48,30.54s21.55,30.54,48,30.54,48-13.7,48-30.54S229.5,237.74,203,237.74Z"/>
        </g>
        <g id="right_nose">
          <path class="cls-1" d="M226.25,247.37a3.55,3.55,0,0,0-4.79-1.45l-10.59,5.68a3.51,3.51,0,0,0-1.71,2.1,3.53,3.53,0,0,0,2.36,4.4,3.31,3.31,0,0,0,1,.16,3.62,3.62,0,0,0,1.66-.42l10.6-5.69A3.54,3.54,0,0,0,226.25,247.37Z"/>
        </g>
        <g id="left_nose">
          <path class="cls-1" d="M179.46,247.37a3.55,3.55,0,0,1,4.79-1.45l10.59,5.68a3.53,3.53,0,0,1-.65,6.5,3.29,3.29,0,0,1-1,.16,3.63,3.63,0,0,1-1.67-.42l-10.59-5.69A3.53,3.53,0,0,1,179.46,247.37Z"/>
        </g>
      </g>
    </g>
  </g>
</svg>
