<svg id="Layer_1" data-name="Layer 1" xmlns="http://www.w3.org/2000/svg" width="363.64" height="363.64" viewBox="0 0 363.64 363.64">
  <defs>
    <style>
      .cls-1 {
        fill: #010101;
      }

      .cls-2, .cls-4 {
        fill: #a86427;
        stroke-miterlimit: 10;
      }

      .cls-2 {
        stroke: #010101;
      }

      .cls-3 {
        fill: #030303;
      }

      .cls-4 {
        stroke: #030303;
      }

      .cls-5 {
        fill: #c5a488;
      }

      .cls-6 {
        fill: #333;
      }
    </style>
  </defs>
  <g id="Monkey">
    <circle class="cls-1" cx="181.82" cy="181.82" r="181.82"/>
    <g id="monkey-2" data-name="monkey">
      <g id="ears">
        <g id="right_ear">
          <ellipse class="cls-2" cx="280.76" cy="151.06" rx="58.55" ry="62.55" transform="translate(-34.04 100.63) rotate(-19.18)"/>
          <path class="cls-3" d="M267.41,153.06a1,1,0,0,1-.6-.19,1,1,0,0,1-.25-1.46c.57-.82,14.23-20.06,25.44-19,3.82.35,6.87,2.95,9.05,7.72a1,1,0,0,1-1.9.88c-1.86-4-4.33-6.23-7.34-6.51-4.07-.37-9.4,2.61-15.43,8.63a81.39,81.39,0,0,0-8.11,9.53A1,1,0,0,1,267.41,153.06Z"/>
        </g>
        <g id="left_ear">
          <ellipse class="cls-2" cx="82.88" cy="151.06" rx="62.55" ry="58.55" transform="translate(-87.02 179.7) rotate(-70.82)"/>
          <path class="cls-3" d="M101.15,153.06a1,1,0,0,0,.6-.19,1,1,0,0,0,.26-1.46c-.58-.82-14.23-20.06-25.45-19-3.82.35-6.86,2.95-9,7.72a1.05,1.05,0,0,0,1.91.88c1.85-4,4.32-6.23,7.34-6.51,4.07-.37,9.4,2.61,15.42,8.63a81.39,81.39,0,0,1,8.11,9.53A1,1,0,0,0,101.15,153.06Z"/>
        </g>
      </g>
      <g id="face">
        <path class="cls-4" d="M276.47,170.76c-7.68-14.34-14.92-27.22-24.82-37.1-12.66-12.65-26.1-21.65-52.3-24-5.09-11-12.83-27-15.22-27.33-3.67-.52-2.09,24.61-6.81,24.08s-12.56-12.56-12.56-12.56l-9.71,17.4c-16.42,3.09-25.49,9.44-35.31,19.24C110.23,140,99.33,152,93.07,168.93c-5.79,15.68-9.9,39.06-4.73,54.77C93,238,110.84,285.47,184.7,281,309.24,281.28,284.63,186,276.47,170.76Z"/>
        <path class="cls-5" d="M271.76,199.19c-13.63-53.79-84.83-14.74-86.78-13.66-1.94-1.08-73.15-40.13-86.77,13.66-13.8,54.48,61,74.95,86.73,75H185C210.77,274.14,285.55,253.67,271.76,199.19Z"/>
      </g>
      <path id="mouse" class="cls-1" d="M200.16,244.78a.72.72,0,0,0-.87-.51c-5.66,1.4-9.67,1.13-11.63-.81a5.91,5.91,0,0,1-1.37-4.93.71.71,0,0,0-.54-.78h0a.71.71,0,0,0-.83.43.7.7,0,0,0-.7-.22h0a.7.7,0,0,0-.53.77,6,6,0,0,1-1.37,4.94c-2,1.94-6,2.21-11.63.81a.72.72,0,0,0-.35,1.4c5.09,1.26,8.93,1.23,11.46-.08a6,6,0,0,0,1.54-1.11,6.25,6.25,0,0,0,1.68-3.16,6.12,6.12,0,0,0,1.62,2.95,6.37,6.37,0,0,0,1.54,1.11c2.53,1.32,6.38,1.34,11.47.08A.73.73,0,0,0,200.16,244.78Z"/>
      <g id="eyes">
        <g id="right">
          <g id="right_eye">
            <circle class="cls-1" cx="224.35" cy="223.86" r="18.34"/>
          </g>
          <g id="right_eyebrow">
            <ellipse class="cls-6" cx="223.48" cy="190.28" rx="7.76" ry="15.52" transform="translate(12.31 394.14) rotate(-84.4)"/>
          </g>
        </g>
        <g id="left">
          <g id="left_eye">
            <circle class="cls-1" cx="145.62" cy="223.86" r="18.34"/>
          </g>
          <g id="left_eyebrow">
            <ellipse class="cls-6" cx="142.8" cy="190.28" rx="15.52" ry="7.76" transform="translate(-17.88 14.84) rotate(-5.6)"/>
          </g>
        </g>
      </g>
    </g>
  </g>
</svg>
