<svg id="Layer_1" data-name="Layer 1" xmlns="http://www.w3.org/2000/svg" width="363.64" height="363.64" viewBox="0 0 363.64 363.64">
  <defs>
    <style>
      .cls-1 {
        fill: #010101;
      }

      .cls-2 {
        fill: #a77d52;
      }

      .cls-3 {
        fill: #8d633a;
      }

      .cls-4 {
        fill: #fff;
      }

      .cls-5 {
        fill: #333;
      }
    </style>
  </defs>
  <g id="OX">
    <circle class="cls-1" cx="181.82" cy="181.82" r="181.82"/>
    <g id="ox-2" data-name="ox">
      <g id="ears">
        <g id="left_ear">
          <g>
            <path class="cls-2" d="M135.91,117.61S49.79,88.18,43.25,104.53,73.77,171,92.31,168.85,135.91,117.61,135.91,117.61Z"/>
            <path class="cls-1" d="M91.1,169.34c-10,0-23.56-13-32.41-24.59-10.46-13.65-19.41-31.43-15.83-40.37,2.8-7,19.38-7,49.27.15,22.11,5.26,43.7,12.61,43.92,12.69l.46.15-.23.44a255.19,255.19,0,0,1-14.88,24.84c-11.46,16.74-21.23,25.7-29,26.62A10.64,10.64,0,0,1,91.1,169.34ZM57.08,100c-7.64,0-12.19,1.56-13.44,4.69-2.94,7.36,3.52,23.62,15.72,39.55,12,15.63,24.89,25.13,32.9,24.19,17.17-2,40.51-45.72,43.05-50.57-3.26-1.1-23.1-7.69-43.38-12.51C77,101.79,65.25,100,57.08,100Z"/>
          </g>
          <path class="cls-1" d="M109.75,156.86l.47-1.18c-2.94-1.17-6.17-2.54-9.41-4L77.94,138.39A3.19,3.19,0,0,1,77.2,137l-2.49.41c1.15,6.9,29,18.36,34.57,20.59l.47-1.17Z"/>
        </g>
        <g id="right_ear">
          <g>
            <path class="cls-2" d="M227.73,117.61s86.11-29.43,92.65-13.08-30.52,66.5-49.05,64.32S227.73,117.61,227.73,117.61Z"/>
            <path class="cls-1" d="M272.54,169.34a10.41,10.41,0,0,1-1.26-.07c-7.81-.92-17.58-9.88-29-26.62a257.58,257.58,0,0,1-14.88-24.84l-.22-.44.46-.15c.22-.08,21.8-7.43,43.92-12.69,29.89-7.11,46.46-7.16,49.27-.15,3.57,8.94-5.38,26.72-15.83,40.37C296.09,156.31,282.52,169.34,272.54,169.34Zm-44.21-51.48c2.54,4.85,25.87,48.55,43,50.57,8,.94,20.92-8.56,32.9-24.19,12.2-15.93,18.66-32.19,15.71-39.55-2.58-6.46-19.28-6.24-48.28.66C251.43,110.17,231.59,116.76,228.33,117.86Z"/>
          </g>
          <path class="cls-1" d="M286.44,137a3.19,3.19,0,0,1-.74,1.36l-22.88,13.28c-3.24,1.47-6.46,2.84-9.4,4l.47,1.18h0l.47,1.17c5.57-2.23,33.42-13.69,34.57-20.59Z"/>
        </g>
      </g>
      <g id="horn">
        <g id="right_horn">
          <path class="cls-3" d="M195.8,108.88s49.31-21.83,46.89-51.75,26.68,47.71,4.85,72.77-55,8.89-55,8.89Z"/>
          <path class="cls-1" d="M216.18,144.28a60.78,60.78,0,0,1-23.8-5.11l-.27-.13,3.29-30.45.22-.1c.5-.21,49-22,46.65-51.32-.48-5.87.28-6.91,1-7.16s1.35.25,2.17,1.46c3.23,4.76,7.95,20.11,9.82,35.37,3.09,25.26-2.32,37.51-7.39,43.34C238.27,141.18,226.45,144.28,216.18,144.28ZM193,138.54c3.18,1.44,33.88,14.44,54.21-8.92,16.23-18.63,3.93-68.22-2.49-77.68-.7-1-1.1-1.17-1.19-1.14s-.91.39-.43,6.3c2.34,28.83-43.31,50.41-46.92,52.06Z"/>
        </g>
        <g id="left_horn">
          <path class="cls-3" d="M169.53,108.88s-49.32-21.83-46.9-51.75S96,104.84,117.78,129.9s55,8.89,55,8.89Z"/>
          <path class="cls-1" d="M149.14,144.28c-10.26,0-22.09-3.09-31.68-14.1-5.07-5.83-10.48-18.08-7.39-43.34,1.87-15.26,6.59-30.61,9.82-35.37.82-1.21,1.53-1.69,2.17-1.46s1.47,1.29,1,7.16c-2.37,29.27,46.16,51.11,46.65,51.32l.22.1L173.21,139l-.27.13A60.78,60.78,0,0,1,149.14,144.28ZM121.75,50.8c-.13,0-.52.19-1.16,1.14-6.42,9.46-18.72,59.05-2.49,77.68,20.34,23.35,51,10.36,54.21,8.92l-3.18-29.38c-3.61-1.65-49.26-23.23-46.92-52.06.48-5.91-.39-6.28-.43-6.3Z"/>
        </g>
      </g>
      <g id="face">
        <path class="cls-2" d="M248.76,127.74c-31.21-27-63.4-19.71-66.1-19-2.7-.68-34.89-8-66.1,19C83.8,156.13,72,230,79.66,258.05c8.57,31.46,44.89,55,102.67,55.2H183c57.78-.18,94.1-23.74,102.68-55.2C293.32,230,281.52,156.13,248.76,127.74Z"/>
        <path class="cls-1" d="M183,313.68h-1.08c-54.08-.27-93.39-21.52-102.66-55.5-4-14.58-2.68-40.19,3.29-65.25,4.07-17.07,13.87-48.28,33.74-65.5,30.87-26.75,62.38-20.13,66.38-19.14,4-1,35.52-7.61,66.38,19.14,19.87,17.22,29.67,48.43,33.74,65.5,6,25.06,7.27,50.67,3.29,65.25-9.27,34-48.58,55.23-102.66,55.5H183Zm-.24-.84H183c53.9-.17,93.08-21.2,102.27-54.89,3.94-14.45,2.65-39.89-3.3-64.82-9.43-39.54-25-57.74-33.47-65.06-30.82-26.72-62.25-19.82-65.73-18.94l-.1,0-.1,0c-3.48-.88-34.9-7.78-65.73,18.94-8.45,7.32-24,25.52-33.47,65.06-5.94,24.93-7.24,50.37-3.3,64.82,9.19,33.69,48.38,54.72,102.27,54.89Z"/>
      </g>
      <g id="nose">
        <g>
          <ellipse class="cls-4" cx="185.33" cy="278.66" rx="43.78" ry="27.99"/>
          <path class="cls-1" d="M185.33,307.08c-24.37,0-44.2-12.75-44.2-28.42s19.83-28.41,44.2-28.41,44.2,12.75,44.2,28.41S209.7,307.08,185.33,307.08Zm0-56c-23.91,0-43.36,12.37-43.36,27.57s19.45,27.57,43.36,27.57,43.36-12.36,43.36-27.57S209.24,251.09,185.33,251.09Z"/>
        </g>
        <g id="right_nose">
          <path class="cls-1" d="M206.3,259.79a3.19,3.19,0,0,0-4.32-1.3l-9.56,5.12a3.2,3.2,0,0,0,.59,5.87,3.28,3.28,0,0,0,.93.14,3.21,3.21,0,0,0,1.5-.38l9.56-5.13A3.19,3.19,0,0,0,206.3,259.79Z"/>
        </g>
        <g id="left_nose">
          <path class="cls-1" d="M164.07,259.79a3.19,3.19,0,0,1,4.32-1.3l9.56,5.12a3.23,3.23,0,0,1,1.55,1.89,3.16,3.16,0,0,1-.24,2.43,3.23,3.23,0,0,1-1.89,1.55,3.33,3.33,0,0,1-.93.14,3.18,3.18,0,0,1-1.5-.38l-9.56-5.13A3.2,3.2,0,0,1,164.07,259.79Z"/>
        </g>
      </g>
      <g id="right">
        <g id="right_eye">
          <circle class="cls-1" cx="232.21" cy="229.55" r="22.08"/>
        </g>
        <g id="right_eyebrow">
          <ellipse class="cls-5" cx="231.17" cy="189.13" rx="9.34" ry="18.69" transform="translate(20.4 400.75) rotate(-84.4)"/>
        </g>
      </g>
      <g id="left">
        <g id="left_eye">
          <circle class="cls-1" cx="137.21" cy="229.55" r="22.08"/>
        </g>
        <g id="left_eyebrow">
          <ellipse class="cls-5" cx="138.25" cy="189.13" rx="18.69" ry="9.34" transform="translate(-17.79 14.39) rotate(-5.6)"/>
        </g>
      </g>
    </g>
  </g>
</svg>
