<svg id="Layer_1" data-name="Layer 1" xmlns="http://www.w3.org/2000/svg" width="363.64" height="363.64" viewBox="0 0 363.64 363.64">
  <defs>
    <style>
      .cls-1 {
        fill: #010101;
      }

      .cls-2 {
        fill: #deadd0;
        stroke: #010101;
        stroke-miterlimit: 10;
      }

      .cls-3 {
        fill: #333;
      }

      .cls-4 {
        fill: #c986ba;
      }

      .cls-5 {
        fill: #f2f8f3;
      }
    </style>
  </defs>
  <g id="Pig">
    <circle class="cls-1" cx="181.82" cy="181.82" r="181.82"/>
    <g id="pig-2" data-name="pig">
      <path id="face" class="cls-2" d="M254,92.26c-34.45-29.86-69.22-23.09-71.77-22.54-2.55-.55-37.25-7.3-71.69,22.54-20,17.36-31.57,43.3-37.72,62C66,174.88,62,198.25,62,216.77c0,20.91,6.33,37.84,18.82,50.31,19,19,52,28.21,101,28.21h.89c47.22,0,81-9.83,100.41-29.21,13-13,19.56-30.37,19.56-51.72C302.62,182.23,289.66,123.2,254,92.26Z"/>
      <g id="eyebrow">
        <g id="right_eyebrow">
          <ellipse class="cls-3" cx="240.55" cy="176.78" rx="10.18" ry="20.37" transform="translate(41.15 398.94) rotate(-84.4)"/>
        </g>
        <g id="left_eyebrow">
          <ellipse class="cls-3" cx="124.02" cy="176.78" rx="20.37" ry="10.18" transform="translate(-16.65 12.94) rotate(-5.6)"/>
        </g>
      </g>
      <g id="eyes">
        <g id="right_eye">
          <path class="cls-1" d="M242.46,196.17A27.51,27.51,0,0,0,215,223.64h2.76a24.72,24.72,0,0,1,49.43,0h2.76A27.51,27.51,0,0,0,242.46,196.17Z"/>
        </g>
        <g id="left_eye">
          <path class="cls-1" d="M122.11,196.17a27.5,27.5,0,0,0-27.47,27.47h2.75a24.72,24.72,0,0,1,49.44,0h2.76A27.51,27.51,0,0,0,122.11,196.17Z"/>
        </g>
      </g>
      <g id="nose">
        <path id="nose-2" data-name="nose" class="cls-4" d="M182.28,227.11c-39.82,0-48.18,27.35-48.18,44.42s31.12,9.37,48.18,1.61c20.69,9.31,48.19,15.47,48.19-1.61S222.11,227.11,182.28,227.11Z"/>
        <g id="nostril">
          <ellipse id="right_nostril" class="cls-5" cx="164.29" cy="257.54" rx="8.28" ry="11.9"/>
          <ellipse id="left_nostril" class="cls-5" cx="200.28" cy="257.54" rx="8.28" ry="11.9"/>
        </g>
      </g>
      <g id="ears">
        <path id="left_ear" class="cls-2" d="M57.68,97.23S85.91,56,143.14,72c0,0,16.79,58-19.84,79.36C123.3,151.4,70.65,160.56,57.68,97.23Z"/>
        <path id="right_ear" class="cls-2" d="M306,97.23S277.72,56,220.49,72c0,0-16.78,58,19.84,79.36C240.33,151.4,293,160.56,306,97.23Z"/>
      </g>
    </g>
  </g>
</svg>
