<svg id="Layer_1" data-name="Layer 1" xmlns="http://www.w3.org/2000/svg" width="363.64" height="363.64" viewBox="0 0 363.64 363.64">
  <defs>
    <style>
      .cls-1 {
        fill: #010101;
      }

      .cls-2 {
        fill: #fff;
      }

      .cls-3 {
        fill: #dba9cd;
      }

      .cls-4 {
        fill: #333;
      }
    </style>
  </defs>
  <g id="Rabbit">
    <circle class="cls-1" cx="181.82" cy="181.82" r="181.82"/>
    <g id="rabbit-2" data-name="rabbit">
      <g id="ears">
        <g id="right_ear">
          <ellipse class="cls-2" cx="247.66" cy="104.22" rx="73.79" ry="33.54" transform="translate(71.98 307.53) rotate(-71.99)"/>
          <ellipse class="cls-3" cx="241.99" cy="121.78" rx="54.77" ry="19.09" transform="translate(51.37 314.27) rotate(-71.99)"/>
        </g>
        <g id="left_ear">
          <ellipse class="cls-2" cx="115.98" cy="104.22" rx="33.54" ry="73.79" transform="translate(-26.54 40.96) rotate(-18.01)"/>
          <ellipse class="cls-3" cx="121.65" cy="121.78" rx="19.09" ry="54.77" transform="translate(-31.69 43.57) rotate(-18.01)"/>
        </g>
      </g>
      <path id="face" class="cls-2" d="M243.65,158.41c-29.25-25.34-59.4-18.53-62.06-17.87-2.65-.66-32.81-7.47-62,17.87-30.76,26.66-41.83,96-34.65,122.36C93,310.31,127,332.42,181.27,332.6h.65c54.24-.18,88.32-22.29,96.38-51.83C285.48,254.43,274.41,185.07,243.65,158.41Z"/>
      <path id="mouse" class="cls-1" d="M200.11,296.81a.81.81,0,0,0-1-.58c-6.4,1.58-10.93,1.27-13.15-.92-1.77-1.75-1.7-4.35-1.54-5.58a.81.81,0,0,0-.61-.88h0a1.24,1.24,0,0,1-1.74.24h0a.8.8,0,0,0-.61.88c.16,1.23.23,3.83-1.54,5.58-2.22,2.19-6.75,2.5-13.15.91a.81.81,0,1,0-.4,1.58c5.76,1.43,10.1,1.4,13-.08a7.46,7.46,0,0,0,1.74-1.26,7,7,0,0,0,1.9-3.57,6.83,6.83,0,0,0,1.84,3.33,6.93,6.93,0,0,0,1.74,1.26c2.86,1.49,7.2,1.52,13,.09A.83.83,0,0,0,200.11,296.81Z"/>
      <g id="eyes">
        <g id="right">
          <circle id="right_eye" class="cls-1" cx="227.84" cy="259.93" r="20.74"/>
          <ellipse id="right_eyebrow" class="cls-4" cx="226.86" cy="221.98" rx="8.77" ry="17.55" transform="translate(-16.19 426.1) rotate(-84.4)"/>
        </g>
        <g id="left">
          <circle id="left_eye" class="cls-1" cx="138.84" cy="259.93" r="20.74"/>
          <ellipse id="left_eyebrow" class="cls-4" cx="135.65" cy="221.98" rx="17.55" ry="8.77" transform="translate(-21.01 14.29) rotate(-5.6)"/>
        </g>
      </g>
    </g>
  </g>
</svg>
