<svg id="ratIcon" data-name="Layer 1" xmlns="http://www.w3.org/2000/svg" width="363.64" height="363.64" viewBox="0 0 363.64 363.64">
  <defs>
    <style>

      .cls-1 {
        fill: #010101;
      }

      .cls-2 {
        fill: #989898;
      }

      .cls-3 {
        fill: #333;
      }
    </style>
  </defs>
  <g id="Rat">
    <circle class="cls-1" cx="181.82" cy="181.82" r="181.82"/>
    <g id="rat-2" data-name="rat">
      <g id="ear_2">
        <g>
          <circle class="cls-2" cx="244.88" cy="109.94" r="63.19"/>
          <path class="cls-1" d="M244.88,173.55a63.61,63.61,0,1,1,63.61-63.61A63.68,63.68,0,0,1,244.88,173.55Zm0-126.39a62.78,62.78,0,1,0,62.78,62.78A62.85,62.85,0,0,0,244.88,47.16Z"/>
        </g>
        <path class="cls-1" d="M232.35,124.89l2.06,1.39a94.94,94.94,0,0,1,10.71-12.68c5.49-5.37,13.42-11.35,20-9.31l.73-2.38C251.24,97.41,233.12,123.76,232.35,124.89Z"/>
      </g>
      <g id="ear_1">
        <g>
          <circle class="cls-2" cx="117.99" cy="109.94" r="63.19"/>
          <path class="cls-1" d="M118,173.55a63.61,63.61,0,1,1,63.61-63.61A63.69,63.69,0,0,1,118,173.55Zm0-126.39a62.78,62.78,0,1,0,62.78,62.78A62.85,62.85,0,0,0,118,47.16Z"/>
        </g>
        <path class="cls-1" d="M97,101.91l.73,2.38c6.6-2,14.54,3.94,20,9.31a96.77,96.77,0,0,1,10.71,12.68l2.05-1.39C129.75,123.76,111.63,97.41,97,101.91Z"/>
      </g>
      <g id="face">
        <path class="cls-2" d="M245.81,134.66c-29.22-25.33-59.35-21.34-64.41-20.21-5.06-1.13-35.11-5.12-64.33,20.21C84.89,162.54,73.46,218,73.46,246.54c0,56.85,51.12,70.42,108,70.35s108.07-15.67,108.07-72.52C289.51,215.8,278,162.54,245.81,134.66Z"/>
        <path class="cls-1" d="M181,317.3c-44.12,0-73.88-8.31-91-25.42-11.25-11.23-17-26.49-17-45.34,0-16.69,3.65-37.75,9.76-56.32,5.55-16.86,15.94-40.23,34-55.88,31-26.89,62.3-20.81,64.6-20.31,2.29-.5,33.63-6.6,64.68,20.31,32.17,27.88,43.84,81.08,43.84,110,0,19.24-5.93,34.92-17.63,46.61-17.49,17.47-47.93,26.32-90.48,26.32ZM170.75,113.92c-12.06,0-32.77,3.16-53.41,21-17.91,15.52-28.24,38.75-33.75,55.5-6.09,18.5-9.72,39.46-9.72,56.07,0,18.62,5.62,33.68,16.72,44.76,17,16.94,46.54,25.18,90.42,25.18h.8c42.33,0,72.57-8.78,89.9-26.09,11.54-11.52,17.39-27,17.39-46,0-28.8-11.61-81.7-43.57-109.4-31.25-27.09-62.72-20.41-64-20.11l-.09,0-.09,0A51.68,51.68,0,0,0,170.75,113.92Z"/>
      </g>
      <g id="left_eyes">
        <g id="left_eye">
          <circle class="cls-1" cx="140.62" cy="230.53" r="21.69"/>
        </g>
        <g id="left_eyebrow">
          <ellipse class="cls-3" cx="141.64" cy="190.82" rx="18.35" ry="9.18" transform="translate(-17.94 14.73) rotate(-5.6)"/>
        </g>
      </g>
      <g id="right_eye">
        <g id="right_eye-2" data-name="right_eye">
          <circle class="cls-1" cx="227.1" cy="230.53" r="21.69"/>
        </g>
        <g id="right_eyebrow">
          <ellipse class="cls-3" cx="226.08" cy="190.82" rx="9.18" ry="18.35" transform="translate(14.11 397.21) rotate(-84.4)"/>
        </g>
      </g>
      <g id="mouth">
        <path class="cls-1" d="M211.48,281a1.23,1.23,0,0,0-1.74-.09c-7.54,6.64-13.9,9.4-18.43,8-3.63-1.12-5.35-4.69-6-6.47a.57.57,0,0,0-.08-.13v0a1.11,1.11,0,0,0-.29-.35.18.18,0,0,0-.07-.05,1,1,0,0,0-.22-.13l-.22-.08h0a1,1,0,0,0-.25,0,1,1,0,0,0-.24,0h0l-.23.08a1,1,0,0,0-.22.13l-.07.05a1.08,1.08,0,0,0-.28.35l0,0a1.48,1.48,0,0,0-.08.13c-.65,1.78-2.38,5.35-6,6.47-4.53,1.4-10.89-1.36-18.43-8a1.23,1.23,0,0,0-1.74.09,1.25,1.25,0,0,0,.09,1.76c6.79,6,12.69,9,17.6,9a10.86,10.86,0,0,0,3.24-.48,11.38,11.38,0,0,0,6.42-5.46,11.41,11.41,0,0,0,6.42,5.46,10.86,10.86,0,0,0,3.24.48c4.92,0,10.82-3,17.6-9A1.23,1.23,0,0,0,211.48,281Z"/>
      </g>
      <g id="right_whiskers">
        <path class="cls-1" d="M307.18,247H285.36a2.07,2.07,0,0,0,0,4.14h21.82a2.07,2.07,0,0,0,0-4.14Z"/>
        <path class="cls-1" d="M283.61,256.74a2.07,2.07,0,0,0-2.92,2.93l15.43,15.43a2.07,2.07,0,0,0,2.93-2.92Z"/>
        <path class="cls-1" d="M300.83,221.54a2.07,2.07,0,0,0-2.93,0L282.47,237a2.07,2.07,0,0,0,2.93,2.93l15.43-15.44A2.06,2.06,0,0,0,300.83,221.54Z"/>
      </g>
      <g id="left_whiskers">
        <path class="cls-1" d="M81.62,237,66.19,221.54a2.07,2.07,0,1,0-2.93,2.92L78.7,239.9A2.07,2.07,0,0,0,81.62,237Z"/>
        <path class="cls-1" d="M80.8,249A2.07,2.07,0,0,0,78.74,247H56.91a2.07,2.07,0,1,0,0,4.14H78.74A2.06,2.06,0,0,0,80.8,249Z"/>
        <path class="cls-1" d="M80.48,256.74,65,272.18A2.07,2.07,0,0,0,68,275.1l15.44-15.43a2.07,2.07,0,0,0-2.93-2.93Z"/>
      </g>
    </g>
  </g>
</svg>
