<svg id="Layer_1" data-name="Layer 1" xmlns="http://www.w3.org/2000/svg" width="363.64" height="363.64" viewBox="0 0 363.64 363.64">
  <defs>
    <style>
      .cls-1 {
        fill: #010101;
      }

      .cls-2 {
        fill: #fff;
      }

      .cls-3 {
        fill: #333;
      }

      .cls-4 {
        fill: #ec2227;
      }

      .cls-5 {
        fill: #f3eb3c;
      }
    </style>
  </defs>
  <g id="Rooster">
    <circle class="cls-1" cx="181.82" cy="181.82" r="181.82"/>
    <g id="rooster-2" data-name="rooster">
      <path class="cls-2" d="M185.31,96.7C69.14,96.7,58.51,199.26,59.6,233.12c.76,24,13,41.93,36.43,53.25,20.75,10,50.79,15.13,89.28,15.13,37.53,0,67.05-5.55,87.74-16.52,22.39-11.86,29-31.29,30.9-55.59C306.22,200.79,284.24,96.7,185.31,96.7Z"/>
      <g id="eyes">
        <g id="right">
          <g id="right_eye">
            <circle class="cls-1" cx="228.72" cy="218.11" r="21.86"/>
          </g>
          <g id="right_eyebrow">
            <ellipse class="cls-3" cx="227.69" cy="178.1" rx="9.25" ry="18.49" transform="translate(28.23 387.34) rotate(-84.4)"/>
          </g>
        </g>
        <g id="left">
          <g id="left_eye">
            <circle class="cls-1" cx="134.91" cy="218.11" r="21.86"/>
          </g>
          <g id="left_eyebrow">
            <ellipse class="cls-3" cx="131.55" cy="178.1" rx="18.49" ry="9.25" transform="translate(-16.75 13.68) rotate(-5.6)"/>
          </g>
        </g>
      </g>
      <g id="cockscomb">
        <path class="cls-4" d="M126.05,62.63s-39.54-.77-19.66,51.66c0,0,37.29,73.06,76.7,72.05,0,0-28.74-79,3.28-83.13s61.77,14.52,58.7,21.92,7.51-50-21.56-80.2-39.55-.78-45.16-4S136.27,4.47,126.05,62.63Z"/>
      </g>
      <path class="cls-4" d="M173,253.5l-5,20.28s-26.5,45.07,3.31,49.57c0,0,28.16,31.55,38.1-9S173,253.5,173,253.5Z"/>
      <g id="mouth">
        <g id="lower_lip">
          <path class="cls-5" d="M206.77,263.62c0,6.13-11.17,13.29-25,13.29s-25-7.16-25-13.29,11.18-11.09,25-11.09S206.77,257.49,206.77,263.62Z"/>
          <path class="cls-1" d="M181.82,277.33c-14.29,0-25.38-7.37-25.38-13.71s11.39-11.51,25.38-11.51,25.37,5.16,25.37,11.51S196.11,277.33,181.82,277.33Zm0-24.38c-13.53,0-24.54,4.78-24.54,10.67s10.95,12.88,24.54,12.88,24.54-7.05,24.54-12.88S195.35,253,181.82,253Z"/>
        </g>
        <g id="upper_lip">
          <ellipse class="cls-5" cx="181.82" cy="257.5" rx="29.59" ry="13.15"/>
          <path class="cls-1" d="M181.82,271.06c-16.55,0-30-6.08-30-13.56s13.46-13.57,30-13.57,30,6.08,30,13.57S198.36,271.06,181.82,271.06Zm0-26.3c-16.09,0-29.17,5.71-29.17,12.74s13.08,12.73,29.17,12.73S211,264.52,211,257.5,197.9,244.76,181.82,244.76Z"/>
        </g>
      </g>
    </g>
  </g>
</svg>
