<svg id="Layer_1" data-name="Layer 1" xmlns="http://www.w3.org/2000/svg" width="363.64" height="363.64" viewBox="0 0 363.64 363.64">
  <defs>
    <style>
      .cls-1 {
        fill: #010101;
      }

      .cls-2 {
        fill: #f89746;
      }

      .cls-3 {
        fill: #fff;
      }

      .cls-4 {
        fill: #333;
      }
    </style>
  </defs>
  <g id="Tiger">
    <circle class="cls-1" cx="181.82" cy="181.82" r="181.82"/>
    <g id="tiger-2" data-name="tiger">
      <g id="earsT">
        <g id="right_earT">
          <path class="cls-2" d="M271.23,46.5v0l-.29-.14-.28-.16h0C221.8,20.53,205.93,82,205.93,82l33.45,18.24.56.31,33.46,18.24S319.26,73.67,271.23,46.5Z"/>
          <path class="cls-3" d="M257.4,68.77h0l-.17-.09-.16-.09h0c-28.23-14.82-37.41,20.66-37.41,20.66L239,99.8l.33.17,19.32,10.54S285.15,84.48,257.4,68.77Z"/>
        </g>
        <g id="left_earT">
          <path class="cls-2" d="M91.41,47.5v0l.29-.14.28-.16h0C140.83,21.53,156.71,83,156.71,83l-33.45,18.24-.57.31L89.24,119.74S43.38,74.67,91.41,47.5Z"/>
          <path class="cls-3" d="M105.23,69.77h0l.16-.09.17-.09h0C133.79,54.78,143,90.26,143,90.26L123.64,100.8l-.33.17L104,111.51S77.48,85.48,105.23,69.77Z"/>
        </g>
      </g>
      <g id="faceT">
        <path id="faceT2" class="cls-2" d="M296.41,241.14a188,188,0,0,0,1.58-24c-10.33,7.23-26.42-1.23-26.42-1.23,6.37,2.27,17.42-10.18,23-17.14-10.34,6.1-25.46-1.86-25.46-1.86,6.93,2.48,19.38-12.46,24.3-18.82-9.06,7.64-25.14,2.74-25.14,2.74,8.42,1.31,19.73-21.66,21.6-25.58-5.93-20.6-15.43-39.42-29.56-51.67C223.2,71.41,185,80.16,181.82,81c-3.16-.79-41.39-9.54-78.46,22.59-14.43,12.5-24,31.86-29.93,53,3,6.18,13.23,25.48,21,24.28,0,0-16.07,4.9-25.13-2.74,4.91,6.36,17.37,21.3,24.3,18.82,0,0-15.13,8-25.47,1.86,5.56,7,16.61,19.41,23,17.14,0,0-15.08,7.93-25.42,1.88a185.7,185.7,0,0,0,1.58,23.39C57.18,248.89,44,263.05,54.81,278.42l13.58-12.23s-16.3,16.3,1.36,32.6l10.1-21.32.34.54c-3.77,11.33-11.32,38.24.42,42.51l13.8-25.3c18.3,17,46.42,28.34,87,28.49h.78c40.59-.15,68.72-11.49,87-28.49L283,320.52c11.74-4.27,4.19-31.18.42-42.51.12-.18.24-.36.35-.54l10.1,21.32c17.65-16.3,1.36-32.6,1.36-32.6l13.58,12.23C319.67,263.05,306.46,248.89,296.41,241.14Zm-131.3-142c-4.14.18-3.64-19.58-3.64-19.58l8.05,0S169.25,99,165.11,99.14Zm32.41,0c-4.14-.18-4.41-19.54-4.41-19.54l8.06,0S201.67,99.32,197.52,99.14Z"/>
        <path id="right_striation" class="cls-1" d="M297.21,196.73c0-.44-.07-.87-.11-1.31-.54-6.15-1.32-12.41-2.39-18.66l-.06-.38a198.49,198.49,0,0,0-4.81-21.17c-1.87,3.92-13.18,26.89-21.6,25.58,0,0,16.08,4.9,25.14-2.74-4.92,6.36-17.37,21.3-24.3,18.82,0,0,15.12,8,25.46,1.86-5.55,7-16.6,19.41-23,17.14,0,0,16.09,8.46,26.42,1.23C298,210.59,297.78,203.74,297.21,196.73Z"/>
        <path id="left_striation" class="cls-1" d="M93.56,196.87c-6.93,2.48-19.39-12.46-24.3-18.82,9.06,7.64,25.13,2.74,25.13,2.74-7.73,1.2-17.91-18.1-21-24.28a198.53,198.53,0,0,0-4.62,21l0,.15c-1.06,6.37-1.83,12.75-2.34,19,0,.31,0,.62-.08.93-.54,7-.76,13.75-.71,20.21,10.34,6.05,25.42-1.88,25.42-1.88-6.37,2.27-17.42-10.18-23-17.14C78.43,204.83,93.56,196.87,93.56,196.87Z"/>
        <g id="top_striation">
          <path class="cls-1" d="M171.47,79.74h19.88S189.14,111,182,114,171.47,79.74,171.47,79.74Z"/>
          <path class="cls-1" d="M193.11,79.6s.27,19.36,4.41,19.54,3.65-19.58,3.65-19.58Z"/>
          <path class="cls-1" d="M165.11,99.14c4.14-.18,4.41-19.54,4.41-19.54l-8.05,0S161,99.32,165.11,99.14Z"/>
        </g>
      </g>
      <g id="eyesT">
        <g id="right_eyeT">
          <g id="right_eyeT-2" data-name="right_eyeT">
            <circle class="cls-1" cx="234.94" cy="221.95" r="26.21"/>
          </g>
          <g id="right_eyebrowT">
            <ellipse class="cls-4" cx="233.71" cy="173.97" rx="11.09" ry="22.18" transform="translate(37.77 389.59) rotate(-84.4)"/>
          </g>
        </g>
        <g id="left_eyeT">
          <g id="left_eyeT-2" data-name="left_eyeT">
            <circle class="cls-1" cx="133.69" cy="221.95" r="26.21"/>
          </g>
          <g id="left_eyebrowT">
            <ellipse class="cls-4" cx="134.93" cy="173.97" rx="22.18" ry="11.09" transform="translate(-16.33 13.99) rotate(-5.6)"/>
          </g>
        </g>
      </g>
      <g id="noseT">
        <ellipse id="mouthT" class="cls-3" cx="186.27" cy="281.61" rx="46.04" ry="29.62"/>
        <path id="noseM" class="cls-1" d="M208,287a1,1,0,0,0-1.25-.73c-8.08,2-13.81,1.61-16.61-1.16a7.58,7.58,0,0,1-2-5.43c5.41-.55,9.57-3.84,9.57-7.82,0-4.37-5-7.91-11.19-7.91s-11.18,3.54-11.18,7.91c0,3.9,4,7.13,9.24,7.79a7.79,7.79,0,0,1-2,5.76c-2.8,2.77-8.53,3.16-16.62,1.16a1,1,0,1,0-.5,2c7.27,1.81,12.76,1.77,16.38-.11a8.64,8.64,0,0,0,4.59-6.1,8.75,8.75,0,0,0,2.33,4.22,9.18,9.18,0,0,0,2.2,1.59c3.61,1.87,9.1,1.91,16.38.1A1,1,0,0,0,208,287Z"/>
      </g>
    </g>
  </g>
</svg>
